<svg width="103" height="29" viewBox="0 0 103 29" fill="none" xmlns="http://www.w3.org/2000/svg">
<path d="M11.5476 24.4116C11.3553 23.8932 11.2472 23.347 11.2274 22.794C9.78437 24.1586 7.86564 24.8971 5.8859 24.8498C2.23523 24.8498 0 22.9873 0 19.9198C0 15.6536 3.93247 15.1509 7.20526 14.7642C10.1514 14.3776 11.2274 14.1198 11.2274 12.8309C11.2274 11.542 10.2795 10.6591 8.26203 10.6591C6.24456 10.6591 5.31588 11.3036 4.99565 13.1531H0.730133C0.98632 9.51844 3.61864 7.656 8.41574 7.656C11.7718 7.61089 15.6402 8.37778 15.6402 12.8889V19.9778C15.5259 21.4778 15.7221 22.9854 16.2166 24.4051L11.5476 24.4116ZM8.00585 17.3227C6.4367 17.5804 4.67541 17.7738 4.67541 19.7522C4.67541 21.112 5.59769 21.9369 7.16683 21.9369C9.53016 21.9369 11.2018 20.648 11.2018 18.3087V16.4849C10.2017 16.9751 9.11604 17.2641 8.00585 17.3356V17.3227Z" fill="white"/>
<path d="M26.9445 24.8884C24.8317 25.0153 22.7552 24.2932 21.1713 22.8806C19.5873 21.4681 18.6253 19.4806 18.4967 17.3549C18.4743 17.0137 18.4743 16.6714 18.4967 16.3302C18.4361 15.2478 18.588 14.164 18.9437 13.1406C19.2994 12.1173 19.852 11.1745 20.5698 10.366C21.2877 9.55751 22.1568 8.89923 23.1274 8.42872C24.0981 7.95821 25.1514 7.68469 26.2271 7.62378C26.4129 7.62378 26.605 7.62378 26.7908 7.62378C31.78 7.62378 34.9503 11.2198 34.9503 16.936V17.3742H23.1017C23.1657 20.1904 24.5427 21.7049 26.9445 21.7049C27.6901 21.753 28.4299 21.5444 29.0421 21.1134C29.6543 20.6824 30.1026 20.0546 30.3133 19.3333H34.6685C34.1965 21.0026 33.1754 22.4612 31.7722 23.4703C30.369 24.4795 28.6669 24.9795 26.9445 24.8884ZM26.7844 10.8976C25.8116 10.8941 24.8771 11.2788 24.1856 11.9673C23.4941 12.6558 23.102 13.5921 23.0953 14.5709H30.3325C30.1468 12.5796 29.0644 10.8976 26.7844 10.8976Z" fill="white"/>
<path d="M42.0211 10.1049C42.6486 9.32911 43.4469 8.71094 44.3529 8.29932C45.2588 7.8877 46.2476 7.69393 47.2409 7.73334C51.7626 7.73334 54.3245 11.4647 54.3245 16.1111C54.3245 21.2667 51.3463 24.8562 46.9847 24.8562C45.9934 24.9012 45.0064 24.698 44.1123 24.265C43.2181 23.832 42.4446 23.1827 41.861 22.3751V24.418H37.5314V1.93333H42.0147L42.0211 10.1049ZM41.8674 16.1691C41.8674 19.3269 43.3725 21.2538 45.8383 21.2538C48.3041 21.2538 49.6811 19.2367 49.6811 16.1433C49.6811 13.05 48.1888 11.1553 45.8383 11.1553C43.4878 11.1553 41.8674 13.108 41.8674 16.1691Z" fill="white"/>
<path d="M67.1338 14.6482C67.1938 19.6625 68.4619 24.5873 70.8293 29H66.9161C64.1633 24.771 62.6822 19.8324 62.6506 14.7771C62.6101 9.5383 64.0928 4.40189 66.9161 0H70.7589C68.3235 4.4897 67.0753 9.53365 67.1338 14.6482Z" fill="#8C98B2"/>
<path d="M98.6448 0C101.463 4.24154 102.978 9.224 103 14.326C103 18.8371 101.533 25.3267 98.7217 29H94.8789C97.3272 24.4807 98.5737 19.4017 98.4975 14.2551C98.5027 9.27969 97.2486 4.38489 94.8532 0.0322217L98.6448 0Z" fill="#8C98B2"/>
<path d="M77.2084 5.72267C78.4641 5.72267 79.482 4.72148 79.482 3.48644C79.482 2.25141 78.4641 1.25022 77.2084 1.25022C75.9527 1.25022 74.9347 2.25141 74.9347 3.48644C74.9347 4.72148 75.9527 5.72267 77.2084 5.72267Z" fill="white"/>
<path d="M79.482 8.12645H74.9347V24.418H79.482V8.12645Z" fill="white"/>
<path d="M92.1505 11.1553H88.7624V18.8242C88.7624 20.4031 88.7624 21.1249 90.7542 21.1249C91.212 21.1324 91.6698 21.1109 92.1248 21.0604V24.4889C90.8439 24.5791 90.3892 24.6178 89.3772 24.6178C85.5344 24.6178 84.2535 23.606 84.2535 19.6233V11.1553H81.5443V8.12644H84.2919V3.22222H88.7752V8.14578H92.112L92.1505 11.1553Z" fill="white"/>
</svg>
